<svg width="44" height="44" viewBox="0 0 44 44" fill="none" xmlns="http://www.w3.org/2000/svg">
<rect width="44" height="44" rx="22" fill="white" fill-opacity="0.64"/>
<rect x="4.5" y="4.5" width="35" height="35" rx="17.5" fill="white"/>
<rect x="4.5" y="4.5" width="35" height="35" rx="17.5" stroke="#EAF0F2"/>
<mask id="mask0_2_5242" style="mask-type:alpha" maskUnits="userSpaceOnUse" x="10" y="10" width="24" height="24">
<rect x="10" y="10" width="24" height="24" fill="#D9D9D9"/>
</mask>
<g mask="url(#mask0_2_5242)">
<path d="M19.0001 19.3077V29.6922C19.0001 29.7821 19.0289 29.8558 19.0866 29.9135C19.1443 29.9711 19.218 30 19.3079 30H26.0001V26.9037C26.0001 26.6461 26.0864 26.4311 26.2589 26.2587C26.4312 26.0862 26.6462 26 26.9039 26H30.0001V19.3077C30.0001 19.2179 29.9713 19.1441 29.9136 19.0865C29.8559 19.0288 29.7822 19 29.6924 19H19.3079C19.218 19 19.1443 19.0288 19.0866 19.0865C19.0289 19.1441 19.0001 19.2179 19.0001 19.3077ZM17.5001 29.6922V19.2922C17.5001 18.7936 17.6793 18.3702 18.0376 18.0222C18.3959 17.6741 18.8244 17.5 19.3231 17.5H29.6924C30.191 17.5 30.617 17.6766 30.9704 18.0297C31.3235 18.3831 31.5001 18.8091 31.5001 19.3077V26.0402C31.5001 26.2814 31.4533 26.5131 31.3596 26.7355C31.2661 26.958 31.1373 27.1512 30.9731 27.3152L27.3154 30.973C27.1514 31.1371 26.9581 31.266 26.7356 31.3595C26.5133 31.4531 26.2815 31.5 26.0404 31.5H19.3079C18.8092 31.5 18.3832 31.3234 18.0299 30.9702C17.6767 30.6169 17.5001 30.1909 17.5001 29.6922ZM12.5251 16.423C12.4316 15.9243 12.5288 15.475 12.8166 15.075C13.1043 14.675 13.4975 14.4282 13.9964 14.3347L24.2309 12.525C24.7194 12.4315 25.161 12.5311 25.5559 12.824C25.9507 13.117 26.2052 13.5077 26.3194 13.9962L26.4751 14.8C26.5328 15.05 26.4939 15.2493 26.3586 15.398C26.2234 15.5468 26.0629 15.6346 25.8771 15.6615C25.6911 15.6885 25.5144 15.6555 25.3471 15.5625C25.1799 15.4695 25.0643 15.298 25.0001 15.048L24.8251 14.2115C24.8123 14.141 24.7738 14.0849 24.7096 14.0432C24.6456 14.0016 24.5751 13.9871 24.4981 14L14.2599 15.8192C14.17 15.8321 14.1027 15.8737 14.0579 15.9442C14.013 16.0147 13.9969 16.0949 14.0096 16.1847L15.6731 25.6692C15.7103 25.8757 15.6731 26.0642 15.5616 26.2347C15.4501 26.4052 15.2912 26.5122 15.0849 26.5557C14.872 26.5994 14.6813 26.5596 14.5126 26.4365C14.3441 26.3135 14.2413 26.1456 14.2041 25.9327L12.5251 16.423Z" fill="#3D404B"/>
</g>
</svg>
