<svg width="20" height="20" viewBox="0 0 20 20" fill="none" xmlns="http://www.w3.org/2000/svg">
<path d="M9.89812 17.4097C6.7974 17.9338 4.7727 16.0267 4.14795 15.0077L4.73025 13.1699L5.40353 11.9871L5.89484 9.69427L7.31418 7.89279L8.76992 7.82001L11.9362 7.89279L14.9568 12.0962L15.9758 14.6074C14.1998 17.417 11.184 17.6463 9.89812 17.4097Z" fill="url(#paint0_linear_2_5204)"/>
<path fill-rule="evenodd" clip-rule="evenodd" d="M10.7731 12.7745C10.6867 12.8318 10.587 12.8657 10.4836 12.8729C10.3802 12.8802 10.2766 12.8605 10.1831 12.8159C10.058 12.7423 9.95766 12.633 9.89497 12.5021C9.83227 12.3712 9.81004 12.2245 9.83112 12.0809C9.77751 11.3688 9.4752 10.6982 8.97709 10.1865C8.81311 10.91 8.52221 11.5987 8.11788 12.2207L7.63651 12.9557C7.17692 13.657 6.9605 14.4899 7.02057 15.3263C7.06598 15.8888 7.32099 16.4138 7.7351 16.7972C8.14921 17.1806 8.69222 17.3946 9.25659 17.3966H10.5609C11.2093 17.3966 11.8313 17.1394 12.2903 16.6814C12.7493 16.2234 13.0078 15.602 13.0092 14.9536C13.0082 13.7121 12.5785 12.509 11.7928 11.5478C11.5713 12.0422 11.2187 12.4664 10.7731 12.7745Z" fill="url(#paint1_linear_2_5204)"/>
<path fill-rule="evenodd" clip-rule="evenodd" d="M13.0607 3.42069L12.7916 3.18259C12.7916 3.18259 12.7916 3.28611 12.7916 3.45692C12.7281 4.11195 12.5213 4.745 12.1859 5.31121C11.8504 5.87742 11.3946 6.36292 10.8506 6.7333C10.8506 6.7333 10.8506 6.55214 10.8144 6.26747C10.7241 5.13955 10.354 4.05193 9.73769 3.103C9.12134 2.15407 8.27814 1.37378 7.28436 0.832703C7.28436 0.832703 7.24813 1.42794 7.20672 2.07493C7.14564 3.10806 6.81554 4.10727 6.24917 4.97347L4.73261 7.27678C3.70095 8.85264 3.21709 10.7244 3.3558 12.6028C3.42483 13.5209 3.7375 14.404 4.26156 15.161C4.78563 15.918 5.50212 16.5215 6.33716 16.9093C6.04624 16.4579 5.86867 15.943 5.81956 15.4082C5.74329 14.3127 6.02681 13.2223 6.62701 12.3026L7.10838 11.5728C7.60992 10.8312 7.90799 9.97095 7.97277 9.07802C7.98024 8.97888 8.01202 8.8831 8.06527 8.79915C8.11853 8.7152 8.19164 8.64565 8.27815 8.59665C8.36519 8.54815 8.46318 8.5227 8.56283 8.5227C8.66247 8.5227 8.76046 8.54815 8.8475 8.59665C9.76989 9.09907 10.4714 9.9279 10.8144 10.9207C10.8678 10.7758 10.9009 10.6243 10.9127 10.4704C10.9042 10.3365 10.9369 10.2034 11.0063 10.0886C11.0757 9.97392 11.1785 9.88316 11.3009 9.82853C11.434 9.78579 11.5771 9.78523 11.7105 9.82692C11.8439 9.86862 11.9612 9.95053 12.0463 10.0614C12.7241 10.6825 13.2644 11.4385 13.6326 12.2809C14.0007 13.1233 14.1885 14.0334 14.1839 14.9527C14.1846 15.5771 14.0222 16.1909 13.7129 16.7333C14.6329 16.2531 15.4041 15.5306 15.9432 14.6439C16.4824 13.7572 16.7689 12.74 16.7719 11.7022C16.7702 10.1385 16.4388 8.59275 15.7993 7.16577C15.1598 5.73879 14.2267 4.46267 13.0607 3.42069Z" fill="#FF7A1A"/>
<defs>
<linearGradient id="paint0_linear_2_5204" x1="10.0619" y1="7.82001" x2="10.0619" y2="17.4991" gradientUnits="userSpaceOnUse">
<stop stop-color="#FFC888"/>
<stop offset="1" stop-color="#FFEBCD"/>
</linearGradient>
<linearGradient id="paint1_linear_2_5204" x1="10.01" y1="10.1865" x2="10.01" y2="17.3966" gradientUnits="userSpaceOnUse">
<stop stop-color="#FFBD8D"/>
<stop offset="1" stop-color="#FF6B00"/>
</linearGradient>
</defs>
</svg>
