<svg width="46" height="36" viewBox="0 0 46 36" fill="none" xmlns="http://www.w3.org/2000/svg">
<rect x="5" width="36" height="36" rx="16" fill="#FCFBFD"/>
<g clip-path="url(#clip0_2_4693)">
<path d="M9.1215 18.3388H13.8307V20.9953H5.55078V18.8563L10.1737 11.5769H5.63703V8.92041H13.7445V11.0594L9.1215 18.3388Z" fill="#1E2026"/>
<path d="M20.6146 12.3704H23.2021V20.9953H20.6146V20.1846C20.0971 20.8861 19.2749 21.2368 18.1479 21.2368C17.2279 21.2368 16.4574 20.9206 15.8364 20.2881C15.2269 19.6556 14.9222 18.7816 14.9222 17.6661V12.3704H17.5096V17.2866C17.5096 17.7926 17.6476 18.1836 17.9236 18.4596C18.2111 18.7241 18.5734 18.8563 19.0104 18.8563C19.5049 18.8563 19.8959 18.7068 20.1834 18.4078C20.4709 18.1088 20.6146 17.6661 20.6146 17.0796V12.3704Z" fill="#1E2026"/>
<path d="M32.8621 20.9953L32.2584 19.0978H27.7734L27.1697 20.9953H24.151L28.2564 8.92041H31.7754L35.8809 20.9953H32.8621ZM28.6014 16.5103H31.4304L30.0159 12.0771L28.6014 16.5103Z" fill="#1E2026"/>
<path d="M36.9105 12.1548C37.7448 11.5934 38.8361 11.5934 39.6704 12.1548V20.9953H36.9105V12.1548Z" fill="#1E2026"/>
<path d="M38.2876 6.76416C38.2876 6.76416 38.6386 8.56918 40.4438 8.92039C40.4438 8.92039 38.6386 9.2716 38.2876 11.0766C37.9365 9.2716 36.1313 8.92039 36.1313 8.92039C37.9365 8.56918 38.2876 6.76416 38.2876 6.76416Z" fill="#F9C94E"/>
<path d="M27.7372 23.8275C28.2121 23.8275 28.616 23.9962 28.9489 24.3335C29.2863 24.6709 29.4549 25.0837 29.4549 25.5719C29.4549 26.0602 29.2863 26.473 28.9489 26.8103C28.616 27.1476 28.2121 27.3163 27.7372 27.3163C27.1469 27.3163 26.6986 27.0722 26.3923 26.5839V27.2364H25.9529V22.5759H26.3923V24.5599C26.6986 24.0717 27.1469 23.8275 27.7372 23.8275ZM26.7718 26.5107C27.0248 26.7637 27.3355 26.8902 27.7039 26.8902C28.0723 26.8902 28.383 26.7637 28.636 26.5107C28.889 26.2532 29.0155 25.9403 29.0155 25.5719C29.0155 25.2035 28.889 24.8928 28.636 24.6398C28.383 24.3824 28.0723 24.2537 27.7039 24.2537C27.3355 24.2537 27.0248 24.3824 26.7718 24.6398C26.5188 24.8928 26.3923 25.2035 26.3923 25.5719C26.3923 25.9403 26.5188 26.2532 26.7718 26.5107ZM31.7235 23.8275C32.2162 23.8275 32.6135 24.0029 32.9153 24.3535C33.2216 24.6997 33.3747 25.1103 33.3747 25.5852C33.3747 25.6341 33.3703 25.7029 33.3614 25.7916H30.4386C30.483 26.129 30.625 26.3975 30.8647 26.5972C31.1088 26.7925 31.4084 26.8902 31.7635 26.8902C32.0165 26.8902 32.234 26.8391 32.416 26.737C32.6024 26.6305 32.7422 26.4929 32.8354 26.3243L33.2216 26.5506C33.0751 26.7859 32.8754 26.9723 32.6224 27.1099C32.3694 27.2475 32.0809 27.3163 31.7568 27.3163C31.2331 27.3163 30.807 27.1521 30.4785 26.8236C30.1501 26.4951 29.9858 26.0779 29.9858 25.5719C29.9858 25.0748 30.1478 24.6598 30.4719 24.3269C30.7959 23.994 31.2131 23.8275 31.7235 23.8275ZM31.7235 24.2537C31.3773 24.2537 31.0866 24.358 30.8514 24.5666C30.6206 24.7707 30.483 25.0371 30.4386 25.3655H32.922C32.8776 25.0149 32.7422 24.7419 32.5158 24.5466C32.2895 24.3513 32.0254 24.2537 31.7235 24.2537ZM35.7405 24.3335H34.7818V26.3509C34.7818 26.5329 34.8173 26.6638 34.8883 26.7437C34.9593 26.8192 35.0658 26.8591 35.2079 26.8635C35.3499 26.8635 35.5274 26.8591 35.7405 26.8502V27.2364C35.2744 27.3074 34.9238 27.2741 34.6885 27.1365C34.4577 26.9989 34.3423 26.737 34.3423 26.3509V24.3335H33.6433V23.9074H34.3423V23.1085L34.7818 22.9753V23.9074H35.7405V24.3335ZM39.1342 23.9074H39.5736V27.2364H39.1342V26.5839C38.8279 27.0722 38.3796 27.3163 37.7893 27.3163C37.3144 27.3163 36.9082 27.1476 36.5709 26.8103C36.238 26.473 36.0716 26.0602 36.0716 25.5719C36.0716 25.0837 36.238 24.6709 36.5709 24.3335C36.9082 23.9962 37.3144 23.8275 37.7893 23.8275C38.3796 23.8275 38.8279 24.0717 39.1342 24.5599V23.9074ZM36.8905 26.5107C37.1435 26.7637 37.4542 26.8902 37.8226 26.8902C38.191 26.8902 38.5017 26.7637 38.7547 26.5107C39.0077 26.2532 39.1342 25.9403 39.1342 25.5719C39.1342 25.2035 39.0077 24.8928 38.7547 24.6398C38.5017 24.3824 38.191 24.2537 37.8226 24.2537C37.4542 24.2537 37.1435 24.3824 36.8905 24.6398C36.6375 24.8928 36.511 25.2035 36.511 25.5719C36.511 25.9403 36.6375 26.2532 36.8905 26.5107Z" fill="#1E2026"/>
</g>
<defs>
<clipPath id="clip0_2_4693">
<rect width="46" height="23" fill="white" transform="translate(0 6.5)"/>
</clipPath>
</defs>
</svg>
