<svg width="20" height="20" viewBox="0 0 20 20" fill="none" xmlns="http://www.w3.org/2000/svg">
<path d="M9.99984 1.66669L12.1135 2.11163L14.1665 2.78314L15.7745 4.22531L17.2167 5.83335L17.8882 7.88633L18.3332 10L17.8882 12.1137L17.2167 14.1667L15.7745 15.7747L14.1665 17.2169L12.1135 17.8884L9.99984 18.3334L7.88615 17.8884L5.83317 17.2169L4.22513 15.7747L2.78296 14.1667L2.11144 12.1137L1.6665 10L2.11144 7.88633L2.78296 5.83335L4.22513 4.22531L5.83317 2.78314L7.88615 2.11163L9.99984 1.66669Z" fill="url(#paint0_radial_2_5198)"/>
<path d="M10.0002 3.33331L11.6911 3.68926L13.3335 4.22648L14.6199 5.38022L15.7737 6.66665L16.3109 8.30903L16.6668 9.99998L16.3109 11.6909L15.7737 13.3333L14.6199 14.6197L13.3335 15.7735L11.6911 16.3107L10.0002 16.6666L8.30921 16.3107L6.66683 15.7735L5.3804 14.6197L4.22666 13.3333L3.68945 11.6909L3.3335 9.99998L3.68945 8.30903L4.22666 6.66665L5.3804 5.38022L6.66683 4.22648L8.30921 3.68926L10.0002 3.33331Z" fill="url(#paint1_radial_2_5198)"/>
<path d="M5.97 12.25V11.2367L8.11667 8.82333V8.74333H6.03667V7.85H9.29V8.95L7.21667 11.2833V11.3567H9.37667V12.25H5.97ZM12.0315 12.3433C11.7515 12.3433 11.5026 12.3144 11.2848 12.2567C11.067 12.2033 10.8781 12.1233 10.7181 12.0167C10.5581 11.91 10.4248 11.7811 10.3181 11.63C10.2159 11.4789 10.1381 11.31 10.0848 11.1233C10.0359 10.9322 10.0115 10.7256 10.0115 10.5033V7.85H11.0915V10.47C11.0915 10.6833 11.1248 10.8589 11.1915 10.9967C11.2581 11.1344 11.3603 11.2367 11.4981 11.3033C11.6359 11.3656 11.8115 11.3967 12.0248 11.3967C12.2381 11.3967 12.4137 11.3656 12.5515 11.3033C12.6892 11.2367 12.7915 11.1344 12.8581 10.9967C12.9248 10.8589 12.9581 10.6833 12.9581 10.47V7.85H14.0315V10.5033C14.0315 11.0856 13.8648 11.5389 13.5315 11.8633C13.2026 12.1833 12.7026 12.3433 12.0315 12.3433Z" fill="#834700"/>
<defs>
<radialGradient id="paint0_radial_2_5198" cx="0" cy="0" r="1" gradientUnits="userSpaceOnUse" gradientTransform="translate(9.99984 10) rotate(90) scale(8.33333)">
<stop stop-color="#FFC657"/>
<stop offset="1" stop-color="#FFBA36"/>
</radialGradient>
<radialGradient id="paint1_radial_2_5198" cx="0" cy="0" r="1" gradientUnits="userSpaceOnUse" gradientTransform="translate(10.0002 9.99998) rotate(90) scale(6.66667)">
<stop stop-color="#FFCC9D"/>
<stop offset="1" stop-color="#F29100"/>
</radialGradient>
</defs>
</svg>
